<svg xmlns="http://www.w3.org/2000/svg" xmlns:xlink="http://www.w3.org/1999/xlink" width="1500" zoomAndPan="magnify" viewBox="0 0 1125 1124.99995" height="1500" preserveAspectRatio="xMidYMid meet" version="1.0"><defs><g/></defs><g fill="#ff00ff" fill-opacity="1"><g transform="translate(-19.176225, 804.045529)"><g><path d="M 384.421875 -72.1875 L 31.296875 -227.953125 L 31.296875 -278.8125 L 384.421875 -455.203125 L 384.421875 -369.84375 L 141.1875 -257.109375 L 384.421875 -157.1875 Z M 384.421875 -72.1875 "/></g></g><g transform="translate(396.546814, 804.045529)"><g><path d="M 297.296875 -519.921875 L 103.484375 0 L 4.984375 0 L 198.796875 -519.921875 Z M 297.296875 -519.921875 "/></g></g><g transform="translate(697.403694, 804.045529)"><g><path d="M 31.296875 -157.1875 L 274.546875 -257.109375 L 31.296875 -369.84375 L 31.296875 -455.203125 L 384.421875 -278.8125 L 384.421875 -227.953125 L 31.296875 -72.1875 Z M 31.296875 -157.1875 "/></g></g></g><g fill="#00ffff" fill-opacity="1"><g transform="translate(11.859206, 880.860907)"><g><path d="M 384.421875 -72.1875 L 31.296875 -227.953125 L 31.296875 -278.8125 L 384.421875 -455.203125 L 384.421875 -369.84375 L 141.1875 -257.109375 L 384.421875 -157.1875 Z M 384.421875 -72.1875 "/></g></g><g transform="translate(427.582244, 880.860907)"><g><path d="M 297.296875 -519.921875 L 103.484375 0 L 4.984375 0 L 198.796875 -519.921875 Z M 297.296875 -519.921875 "/></g></g><g transform="translate(728.439125, 880.860907)"><g><path d="M 31.296875 -157.1875 L 274.546875 -257.109375 L 31.296875 -369.84375 L 31.296875 -455.203125 L 384.421875 -278.8125 L 384.421875 -227.953125 L 31.296875 -72.1875 Z M 31.296875 -157.1875 "/></g></g></g><g fill="#5e17eb" fill-opacity="1"><g transform="translate(-3.658509, 842.453221)"><g><path d="M 384.421875 -72.1875 L 31.296875 -227.953125 L 31.296875 -278.8125 L 384.421875 -455.203125 L 384.421875 -369.84375 L 141.1875 -257.109375 L 384.421875 -157.1875 Z M 384.421875 -72.1875 "/></g></g><g transform="translate(412.064529, 842.453221)"><g><path d="M 297.296875 -519.921875 L 103.484375 0 L 4.984375 0 L 198.796875 -519.921875 Z M 297.296875 -519.921875 "/></g></g><g transform="translate(712.921409, 842.453221)"><g><path d="M 31.296875 -157.1875 L 274.546875 -257.109375 L 31.296875 -369.84375 L 31.296875 -455.203125 L 384.421875 -278.8125 L 384.421875 -227.953125 L 31.296875 -72.1875 Z M 31.296875 -157.1875 "/></g></g></g></svg>